<svg width="357" height="383" viewBox="0 0 357 383" fill="none" xmlns="http://www.w3.org/2000/svg">
<path opacity="0.1" d="M181.365 382.95C256.756 382.95 317.872 372.781 317.872 360.237C317.872 347.693 256.756 337.524 181.365 337.524C105.975 337.524 44.8594 347.693 44.8594 360.237C44.8594 372.781 105.975 382.95 181.365 382.95Z" fill="#70C52C"/>
<path d="M50.944 248.727V177.1C50.944 106.995 108.321 49.6758 178.499 49.6758C248.676 49.6758 306.054 106.995 306.054 177.1V248.727H330.133V177.1C330.133 93.7603 261.924 25.6216 178.499 25.6216C95.0735 25.6216 26.8652 93.7603 26.8652 177.1V248.727H50.944Z" fill="#64B027"/>
<path d="M50.9433 248.727V177.101C50.9433 106.995 108.321 49.6764 178.498 49.6764C248.676 49.6764 306.053 106.995 306.053 177.101V248.727H316.615V176.833C316.615 100.915 254.494 38.8564 178.498 38.8564C102.502 38.8564 40.3809 100.915 40.3809 176.833V248.727H50.9433Z" fill="#70C52C"/>
<path d="M178.506 33.0418C178.506 33.0418 161.319 11.1337 116.832 12.7432C113.341 12.8327 110.297 15.3364 109.492 18.8238C107.344 28.3025 105.374 47.975 119.517 67.2899C121.486 70.062 125.067 71.2245 128.289 70.1514C139.21 66.664 164.81 57.6325 178.506 45.4713V33.0418Z" fill="#71B636"/>
<path d="M124.884 70.4189C126.048 70.5977 127.212 70.5083 128.286 70.1506C138.938 66.7526 163.464 58.0788 177.338 46.4541C110.115 62.7287 124.884 70.4189 124.884 70.4189Z" fill="#3D7B31"/>
<path opacity="0.15" d="M160.248 20.2544C155.325 24.9937 152.281 31.7003 152.281 39.1222C152.281 46.2759 155.146 52.8036 159.89 57.5429C166.872 54.0555 173.496 49.9421 178.508 45.4711V33.0416C178.508 33.0416 173.048 26.0668 160.248 20.2544Z" fill="black"/>
<path d="M178.502 33.0422C178.502 33.0422 195.688 11.1341 240.176 12.7437C243.667 12.8331 246.71 15.3369 247.516 18.8243C249.664 28.3029 251.633 47.9755 237.49 67.2904C235.521 70.0625 231.941 71.2249 228.718 70.1519C217.798 66.6645 192.197 57.633 178.502 45.4717V33.0422Z" fill="#71B636"/>
<path d="M178.502 33.0422C178.502 33.0422 195.688 11.1341 240.176 12.7437C243.667 12.8331 246.71 15.3369 247.516 18.8243C249.664 28.3029 251.633 47.9755 237.49 67.2904C235.521 70.0625 231.941 71.2249 228.718 70.1519C217.798 66.6645 192.197 57.633 178.502 45.4717V33.0422Z" fill="#71B636"/>
<path d="M232.21 70.4194C231.046 70.5982 229.883 70.5088 228.809 70.1511C218.157 66.7531 193.63 58.0793 179.756 46.4546C246.98 62.7292 232.21 70.4194 232.21 70.4194Z" fill="#3D7B31"/>
<path opacity="0.15" d="M178.502 33.0415V45.471C183.515 49.9421 190.139 53.966 197.12 57.5428C201.775 52.8035 204.729 46.2758 204.729 39.1221C204.729 31.7002 201.686 25.0831 196.762 20.3438C184.052 26.0667 178.502 33.0415 178.502 33.0415Z" fill="black"/>
<path d="M193.181 52.9281C200.815 44.8465 200.445 32.1129 192.355 24.4869C184.265 16.8608 171.519 17.2302 163.885 25.3118C156.251 33.3934 156.621 46.1269 164.711 53.753C172.8 61.379 185.547 61.0097 193.181 52.9281Z" fill="#70C52C"/>
<path opacity="0.2" d="M172.052 39.1217C175.612 39.1217 178.497 36.2392 178.497 32.6834C178.497 29.1276 175.612 26.2451 172.052 26.2451C168.493 26.2451 165.607 29.1276 165.607 32.6834C165.607 36.2392 168.493 39.1217 172.052 39.1217Z" fill="white"/>
<g clip-path="url(#clip0_199_8515)">
<path d="M208.151 227.243C219.654 235.112 230.295 244.502 246.722 241.015C261.402 237.907 268.877 222.235 276.027 201.477C278.254 201.32 291.871 199.554 290.864 189.482C289.712 178.092 267.858 177.309 258.314 181.669C249.776 185.57 243.074 195.675 239.37 202.997C226.983 195.575 214.082 186.509 203.463 186.621" fill="#F8F8F8"/>
<path d="M154.335 227.243C151.986 228.853 149.669 230.53 147.331 232.128C138.234 238.41 128.835 243.787 115.765 241.015C103.647 238.444 96.4521 227.333 90.2755 211.862C88.9663 208.587 87.7131 205.11 86.4599 201.488C84.2332 201.321 70.6044 199.566 71.6226 189.494C72.7751 178.092 94.6282 177.31 104.184 181.68C112.722 185.593 119.424 195.687 123.128 203.009C130.502 198.593 138.055 193.596 145.205 190.288C150.061 188.041 154.738 186.576 159.035 186.621" fill="#F8F8F8"/>
<g opacity="0.4">
<path d="M147.327 191.237C139.047 195.719 125.888 203.444 123.672 207.591C119.152 199.855 112.114 188.923 103.934 184.988C94.8482 180.617 74.2484 181.355 71.6076 191.483C71.5405 190.857 71.5405 190.208 71.6188 189.504C72.7713 178.102 94.6244 177.32 104.18 181.691C112.718 185.603 119.42 195.697 123.124 203.019C130.498 198.603 138.051 193.607 145.201 190.298C150.057 188.051 154.734 186.587 159.031 186.631" fill="#F8F8F8"/>
</g>
<g opacity="0.4">
<path d="M215.157 191.236C223.438 195.719 236.596 203.443 238.812 207.59C243.333 199.855 250.371 188.922 258.55 184.988C267.636 180.617 288.236 181.355 290.877 191.482C290.944 190.856 290.944 190.208 290.865 189.504C289.713 178.102 267.86 177.319 258.304 181.69C249.766 185.602 243.064 195.697 239.36 203.018C231.986 198.603 224.433 193.606 217.283 190.297C212.427 188.051 207.75 186.586 203.453 186.631" fill="#F8F8F8"/>
</g>
<path d="M147.327 232.139C138.23 238.421 128.831 243.798 115.761 241.025C103.643 238.454 96.4481 227.343 90.2715 211.872C95.1725 220.927 105.724 236.051 121.468 235.38C136.719 234.721 136.316 218.199 144.261 211.872C146.364 210.184 147.092 221.899 147.327 232.139Z" fill="#DFE8F4"/>
<path d="M215.156 232.139C224.253 238.421 233.653 243.798 246.722 241.026C258.84 238.455 266.035 227.344 272.212 211.873C267.311 220.927 256.759 236.052 241.015 235.381C225.764 234.721 226.178 218.2 218.222 211.873C216.119 210.185 215.391 221.9 215.156 232.139Z" fill="#DFE8F4"/>
<path d="M217.306 190.298C209.071 194.2 195.99 196.726 181.254 196.726C166.517 196.726 153.437 194.2 145.201 190.298C150.057 188.052 154.735 186.587 159.031 186.632H203.465C207.762 186.587 212.439 188.052 217.306 190.298Z" fill="#DFE8F4"/>
<path d="M206.074 194.066C198.957 195.743 190.419 196.726 181.255 196.726C172.08 196.726 163.542 195.743 156.426 194.066C161.226 189.192 170.245 181.904 181.244 181.904C192.255 181.904 201.273 189.192 206.074 194.066Z" fill="#B25B36"/>
<path d="M90.9409 184.767C96.291 184.644 100.605 183.539 100.576 182.299C100.548 181.058 96.1877 180.152 90.8376 180.275C85.4875 180.398 81.1735 181.503 81.202 182.743C81.2306 183.984 85.5908 184.89 90.9409 184.767Z" fill="#F9ACBC"/>
<path d="M80.9782 188.522C82.6648 188.484 84.0166 187.782 83.9976 186.955C83.9785 186.128 82.5959 185.489 80.9093 185.528C79.2227 185.566 77.8709 186.268 77.8899 187.095C77.9089 187.922 79.2916 188.561 80.9782 188.522Z" fill="#F9ACBC"/>
<path d="M80.0905 183.12C80.1129 183.948 78.7589 184.641 77.0693 184.685C76.2973 184.697 75.6035 184.585 75.0664 184.361C76.0735 183.411 77.3379 182.595 78.7701 181.936C79.5646 182.181 80.0793 182.617 80.0905 183.12Z" fill="#F9ACBC"/>
<path d="M122.666 243.328C120.372 243.328 117.977 243.082 115.437 242.546C100.835 239.449 93.0246 225.107 85.3039 202.93C82.7079 202.594 75.9495 201.32 72.3576 197.05C70.5337 194.881 69.7617 192.288 70.0638 189.326C70.4107 185.838 72.4695 182.932 76.0054 180.897C83.9052 176.37 97.534 176.918 104.818 180.249C113.971 184.43 120.674 195.094 123.74 200.795C125.083 199.979 126.436 199.151 127.779 198.324C138.398 191.796 149.364 185.056 158.83 185.056C158.897 185.056 158.964 185.056 159.032 185.056H174.16V188.174H159.02C158.964 188.174 158.908 188.174 158.841 188.174C150.248 188.174 139.651 194.68 129.413 200.985C127.611 202.091 125.743 203.243 123.919 204.338L122.475 205.199L121.715 203.701C119.286 198.894 112.64 187.258 103.509 183.088C97.0641 180.137 84.3192 179.723 77.5496 183.602C74.8865 185.134 73.4095 187.157 73.1633 189.627C72.9507 191.74 73.4654 193.506 74.741 195.027C77.5943 198.425 83.715 199.71 86.5571 199.912L87.5866 199.99L87.9222 200.962C95.3968 222.637 102.704 236.644 116.075 239.472C129.995 242.423 139.517 235.716 149.588 228.618C150.863 227.712 152.15 226.818 153.437 225.935L155.205 228.517C153.929 229.389 152.653 230.283 151.389 231.177C142.919 237.18 134.18 243.328 122.666 243.328Z" fill="#414141"/>
<path d="M125.509 211.861L121.615 203.421L124.636 202.605L125.509 211.861Z" fill="#414141"/>
<path d="M93.1476 199.99L86.7919 203.019L86.1094 199.968L93.1476 199.99Z" fill="#414141"/>
<path d="M281.28 182.76C281.308 181.519 276.994 180.414 271.644 180.292C266.294 180.169 261.934 181.075 261.905 182.315C261.877 183.556 266.191 184.661 271.541 184.784C276.891 184.907 281.251 184.001 281.28 182.76Z" fill="#F9ACBC"/>
<path d="M284.585 187.113C284.604 186.286 283.253 185.584 281.566 185.545C279.88 185.507 278.497 186.146 278.478 186.973C278.459 187.8 279.811 188.502 281.497 188.54C283.184 188.579 284.566 187.94 284.585 187.113Z" fill="#F9ACBC"/>
<path d="M282.397 183.121C282.374 183.949 283.728 184.642 285.418 184.686C286.19 184.698 286.884 184.586 287.421 184.362C286.414 183.412 285.149 182.596 283.717 181.937C282.934 182.182 282.408 182.618 282.397 183.121Z" fill="#F9ACBC"/>
<path d="M239.83 243.328C228.305 243.328 219.577 237.18 211.084 231.189C209.82 230.294 208.555 229.4 207.269 228.528L209.037 225.946C210.323 226.829 211.61 227.734 212.886 228.629C222.956 235.727 232.479 242.434 246.409 239.483C259.781 236.655 267.099 222.648 274.562 200.974L274.898 200.001L275.927 199.923C278.769 199.722 284.89 198.436 287.743 195.038C289.019 193.529 289.534 191.763 289.321 189.639C289.075 187.168 287.598 185.134 284.935 183.614C278.165 179.735 265.42 180.148 258.975 183.099C249.845 187.269 243.209 198.906 240.77 203.712L240.009 205.21L238.566 204.349C236.742 203.254 234.873 202.103 233.072 200.996C222.755 194.658 212.102 188.107 203.487 188.186H188.336V185.067H203.475C203.542 185.067 203.61 185.067 203.677 185.067C213.132 185.067 224.098 191.807 234.716 198.335C236.07 199.163 237.413 200.001 238.767 200.806C241.833 195.105 248.535 184.441 257.688 180.26C264.973 176.929 278.602 176.381 286.501 180.908C290.037 182.932 292.096 185.849 292.443 189.337C292.745 192.299 291.973 194.892 290.149 197.061C286.557 201.331 279.799 202.594 277.203 202.941C269.482 225.119 261.672 239.461 247.07 242.557C244.518 243.093 242.113 243.328 239.83 243.328Z" fill="#414141"/>
<path d="M236.977 211.861L237.861 202.605L240.871 203.421L236.977 211.861Z" fill="#414141"/>
<path d="M269.348 199.99L276.375 199.968L275.692 203.019L269.348 199.99Z" fill="#414141"/>
<path d="M179.968 288.467C179.968 288.467 180.539 319.263 180.248 328.239C179.912 338.646 175.805 341.676 168.409 341.676C160.543 341.676 154.322 341.676 146.69 341.676C141.767 341.676 138.119 338.401 138.086 332.498C138.063 328.597 140.491 324.584 144.542 322.393C135.087 290.703 132.133 258.531 132.133 258.531" fill="#C97043"/>
<path d="M180.248 328.239C179.923 338.635 175.805 341.675 168.409 341.675H146.69C141.901 341.675 138.309 338.568 138.097 332.945C138.086 332.8 138.086 332.643 138.086 332.487C138.063 328.597 140.491 324.572 144.542 322.381C138.455 301.97 135.064 281.368 133.42 269.284C132.513 262.6 132.133 258.52 132.133 258.52L179.968 288.466C179.968 288.466 180.539 319.263 180.248 328.239Z" fill="#F8F8F8"/>
<path d="M180.249 328.239C179.925 338.635 175.807 341.676 168.411 341.676H146.692C141.903 341.676 138.311 338.568 138.098 332.945C140.761 334.298 145.528 335.461 153.954 335.55C169.317 335.707 174.688 334.041 174.576 324.092C174.486 316.044 173.67 303.133 163.666 295.565C154.916 288.948 139.43 281.234 133.41 269.296C132.503 262.611 132.123 258.531 132.123 258.531L179.958 288.478C179.969 288.467 180.54 319.263 180.249 328.239Z" fill="#DFE8F4"/>
<path d="M168.407 343.24H146.689C140.646 343.24 136.562 338.925 136.517 332.509C136.484 328.328 138.878 324.192 142.694 321.677C133.574 290.568 130.598 259 130.564 258.676L133.675 258.385C133.709 258.709 136.73 290.769 146.028 321.945C146.241 322.65 145.928 323.41 145.279 323.767C141.832 325.634 139.617 329.066 139.639 332.498C139.673 337.271 142.302 340.132 146.689 340.132H168.407C174.517 340.132 178.366 338.143 178.69 328.216C178.97 319.374 178.411 288.835 178.411 288.522L181.533 288.466C181.544 288.779 182.103 319.397 181.812 328.317C181.477 338.769 177.46 343.24 168.407 343.24Z" fill="#414141"/>
<path d="M182.528 288.466C182.528 288.466 181.958 319.262 182.249 328.238C182.584 338.645 186.691 341.675 194.087 341.675C201.953 341.675 208.175 341.675 215.806 341.675C220.729 341.675 224.377 338.4 224.411 332.497C224.433 328.596 222.005 324.583 217.954 322.392C227.409 290.702 230.364 258.53 230.364 258.53" fill="#C97043"/>
<path d="M182.249 328.238C182.573 338.634 186.691 341.675 194.087 341.675H215.806C220.595 341.675 224.187 338.567 224.4 332.944C224.411 332.799 224.411 332.643 224.411 332.486C224.433 328.596 222.005 324.572 217.954 322.381C224.041 301.969 227.432 281.368 229.077 269.284C229.983 262.599 230.364 258.519 230.364 258.519L182.528 288.466C182.528 288.466 181.958 319.262 182.249 328.238Z" fill="#F8F8F8"/>
<path d="M182.249 328.238C182.573 338.634 186.691 341.675 194.087 341.675H215.806C220.595 341.675 224.187 338.567 224.399 332.944C221.736 334.297 216.97 335.46 208.544 335.549C193.181 335.706 187.81 334.04 187.922 324.091C188.011 316.043 188.828 303.132 198.831 295.564C207.582 288.947 223.068 281.233 229.088 269.295C229.994 262.61 230.375 258.53 230.375 258.53L182.539 288.477C182.528 288.466 181.958 319.262 182.249 328.238Z" fill="#DFE8F4"/>
<path d="M215.796 343.24H194.077C185.014 343.24 181.008 338.769 180.672 328.294C180.392 319.374 180.952 288.757 180.952 288.444L184.074 288.5C184.074 288.801 183.514 319.352 183.794 328.194C184.107 338.12 187.956 340.11 194.077 340.11H215.796C220.171 340.11 222.812 337.26 222.845 332.475C222.868 329.043 220.652 325.623 217.206 323.745C216.557 323.398 216.244 322.638 216.456 321.923C225.755 290.735 228.776 258.687 228.809 258.363L231.92 258.653C231.886 258.978 228.921 290.545 219.791 321.655C223.606 324.181 226.001 328.306 225.967 332.486C225.934 338.925 221.838 343.24 215.796 343.24Z" fill="#414141"/>
<path d="M209.833 198.346C209.833 198.346 246.031 247.609 223.854 275.533L205.816 287.46C200.971 289.919 192.635 292.356 181.255 292.356C169.876 292.356 161.539 289.919 156.694 287.46L138.635 275.533C116.457 247.598 152.655 198.346 152.655 198.346C152.655 198.346 164.706 181.892 181.233 181.892C197.76 181.892 209.833 198.346 209.833 198.346Z" fill="#F8F8F8"/>
<path d="M229.514 264.534C228.372 268.435 226.537 272.146 223.852 275.533L205.803 287.46C200.958 289.92 192.622 292.357 181.242 292.357C169.862 292.357 161.526 289.92 156.681 287.46L138.633 275.533C135.936 272.135 134.101 268.424 132.971 264.534C139.953 271.095 154.79 280.876 181.242 280.876C207.694 280.876 222.543 271.095 229.514 264.534Z" fill="#DFE8F4"/>
<path d="M210.55 276.001C203.78 281.658 194.046 285.279 181.245 285.279C168.444 285.279 158.709 281.658 151.939 276.001C159.526 278.841 169.182 280.875 181.245 280.875C193.307 280.875 202.964 278.841 210.55 276.001Z" fill="#E8BA9A"/>
<path d="M206.072 194.065C198.955 195.742 190.418 196.726 181.253 196.726C172.078 196.726 163.54 195.742 156.424 194.065C161.224 189.192 170.243 181.903 181.242 181.903C192.253 181.903 201.271 189.192 206.072 194.065Z" fill="#DFE8F4"/>
<path d="M181.244 285.281C152.42 285.281 139.16 266.915 140.234 248.404C141.185 231.949 154.355 203.422 181.244 203.422C208.132 203.422 221.302 231.949 222.253 248.404C223.327 266.926 210.068 285.281 181.244 285.281Z" fill="#F8F8F8"/>
<path d="M210.55 276.001C203.78 281.658 194.046 285.279 181.245 285.279C168.444 285.279 158.709 281.658 151.939 276.001C159.526 278.841 169.182 280.875 181.245 280.875C193.307 280.875 202.964 278.841 210.55 276.001Z" fill="#DFE8F4"/>
<path d="M223.858 275.534C231.098 263.383 230.27 249.332 226.611 236.108C222.93 222.772 216.775 210.32 209.838 198.348C213.239 202.35 216.238 206.687 218.991 211.158C229.912 228.943 241.124 258.286 223.858 275.534Z" fill="#414141"/>
<path d="M138.639 275.534C121.374 258.274 132.586 228.953 143.518 211.158C146.27 206.686 149.269 202.338 152.671 198.347C145.733 210.319 139.579 222.772 135.898 236.108C132.228 249.332 131.4 263.394 138.639 275.534Z" fill="#414141"/>
<path d="M103.623 87.3675C93.9326 66.9894 93.2948 9.77867 109.05 2.6916C125.341 -4.63021 163.419 25.0706 172.449 37.0985L103.623 87.3675Z" fill="#FAA625"/>
<path d="M172.44 37.098L159.258 46.7337L103.613 87.367C95.9818 71.3149 93.9677 32.4478 101.14 13.1763C103.076 7.96723 105.683 4.20013 109.04 2.69106C125.343 -4.64194 163.421 25.0701 172.44 37.098Z" fill="#E6E6E6"/>
<g opacity="0.5">
<path d="M172.438 37.0981L170.055 38.8419C158.742 25.8192 123.764 -0.461101 108.334 6.46947C104.977 7.97855 102.37 11.7568 100.434 16.9548C99.5723 19.2575 98.845 21.8397 98.252 24.6343C98.9569 20.3753 99.9192 16.4741 101.161 13.1653C103.097 7.95619 105.704 4.18909 109.061 2.68001C125.342 -4.6418 163.42 25.0702 172.438 37.0981Z" fill="#F8F8F8"/>
</g>
<path d="M159.258 46.734L103.613 87.3673C95.9818 71.3152 93.9677 32.4481 101.14 13.1766C103.725 10.1585 106.701 8.71649 110.226 9.20834C127.201 11.6117 154.391 39.9935 159.258 46.734Z" fill="#E6E6E6"/>
<path d="M103.622 88.9329C103.04 88.9329 102.481 88.6087 102.212 88.0386C94.7602 72.3666 92.1754 33.0747 99.6277 12.7972C101.843 6.77209 104.797 2.89321 108.411 1.26117C125.833 -6.57485 164.706 24.1879 173.702 36.1599C174.217 36.853 174.083 37.8255 173.389 38.3509C172.695 38.8651 171.722 38.731 171.207 38.0379C161.741 25.4287 124.412 -2.49475 109.698 4.11165C106.923 5.36362 104.45 8.73948 102.559 13.8703C95.3421 33.5107 97.8373 71.5394 105.032 86.6972C105.401 87.4797 105.066 88.4075 104.294 88.7764C104.07 88.8882 103.846 88.9329 103.622 88.9329Z" fill="#414141"/>
<path d="M111.679 13.0551C116.949 9.70161 144.05 23.8422 145.125 33.6121C146.132 42.823 132.984 54.292 130.858 55.4881C128.732 56.6842 114.174 67.5719 110.079 62.5193C103.287 54.1243 104.596 17.56 111.679 13.0551Z" fill="#FF8080"/>
<path d="M130.855 55.4768C128.729 56.6729 114.172 67.5718 110.077 62.508C107.38 59.1768 105.959 51.3855 105.679 42.9347C105.377 34.1709 106.306 24.6917 108.275 18.7001C109.193 15.9278 110.334 13.8934 111.677 13.0327C116.947 9.67915 144.048 23.8197 145.122 33.5896C146.129 42.8229 132.981 54.2919 130.855 55.4768Z" fill="#FFA9A9"/>
<path d="M130.856 55.4758C128.73 56.6719 114.173 67.5708 110.077 62.507C107.38 59.1759 105.959 51.3846 105.68 42.9337C107.649 46.9803 110.581 50.5574 114.15 47.5169C119.98 42.5648 128.462 36.8862 127.376 28.6143C126.649 23.0698 114.139 15.435 108.264 18.6991C109.182 15.9269 110.323 13.8924 111.666 13.0317C116.936 9.67817 144.037 23.8188 145.111 33.5886C146.13 42.8219 132.982 54.2909 130.856 55.4758Z" fill="#F28686"/>
<path d="M113.292 65.4133C111.513 65.4133 109.969 64.8656 108.861 63.5018C103.971 57.4655 102.986 38.4959 105.146 25.2383C106.343 17.9277 108.257 13.3781 110.83 11.7349C114.422 9.45453 122.881 13.0763 126.361 14.7419C133.522 18.1736 145.853 25.9761 146.67 33.4321C147.789 43.6491 134.082 55.4646 131.62 56.8395C131.374 56.9848 130.792 57.3649 130.132 57.8008C126.037 60.506 118.618 65.4133 113.292 65.4133ZM113.918 14.1047C113.236 14.1047 112.777 14.2053 112.509 14.373C111.871 14.7754 109.689 16.7875 108.223 25.7414C106.164 38.317 107.037 56.3029 111.278 61.5344C112.475 63.0099 116.414 63.1106 128.398 55.1963C129.17 54.6821 129.729 54.3132 130.076 54.1232C131.866 53.1171 144.466 42.1288 143.548 33.7786C143.067 29.3743 135.089 22.4102 124.996 17.5588C119.569 14.9543 115.877 14.1047 113.918 14.1047Z" fill="#414141"/>
<path d="M259.04 87.3675C268.73 66.9893 269.368 9.77861 253.613 2.69154C237.321 -4.64145 199.243 25.0706 190.225 37.0985L259.04 87.3675Z" fill="#FAA625"/>
<path d="M190.225 37.0985L203.406 46.7342L259.051 87.3675C266.682 71.3154 268.697 32.4483 261.524 13.1768C259.588 7.96772 256.981 4.20062 253.624 2.69154C237.321 -4.64145 199.243 25.0706 190.225 37.0985Z" fill="#F8F8F8"/>
<g opacity="0.5">
<path d="M190.225 37.0986L192.608 38.8424C203.921 25.8197 238.899 -0.460613 254.329 6.46996C257.686 7.97903 260.293 11.7573 262.229 16.9552C263.091 19.258 263.818 21.8402 264.411 24.6348C263.706 20.3758 262.744 16.4746 261.502 13.1658C259.566 7.95668 256.959 4.18958 253.602 2.6805C237.321 -4.64131 199.243 25.0707 190.225 37.0986Z" fill="#F8F8F8"/>
</g>
<path d="M203.402 46.7345L259.048 87.3678C266.679 71.3157 268.693 32.4486 261.521 13.1771C258.936 10.159 255.959 8.71698 252.435 9.20883C235.46 11.6122 208.27 39.994 203.402 46.7345Z" fill="#DFE7F2"/>
<path d="M259.034 88.9329C258.811 88.9329 258.576 88.8882 258.363 88.7764C257.58 88.4075 257.255 87.4685 257.625 86.6972C264.831 71.5506 267.315 33.5107 260.097 13.8703C258.206 8.7283 255.745 5.35245 252.959 4.11165C238.244 -2.50593 200.916 25.4287 191.45 38.0379C190.935 38.731 189.95 38.8651 189.268 38.3509C188.574 37.8367 188.44 36.853 188.955 36.1599C197.94 24.1879 236.812 -6.57485 254.245 1.26117C257.86 2.88203 260.814 6.76091 263.029 12.7972C270.481 33.0747 267.896 72.3666 260.444 88.0386C260.187 88.6087 259.616 88.9329 259.034 88.9329Z" fill="#414141"/>
<path d="M250.983 13.0551C245.713 9.70161 218.612 23.8422 217.537 33.6121C216.53 42.823 229.678 54.292 231.804 55.4881C233.93 56.6842 248.488 67.5719 252.583 62.5193C259.375 54.1243 258.066 17.56 250.983 13.0551Z" fill="#FF8080"/>
<path d="M231.804 55.4753C233.93 56.6714 248.488 67.5703 252.583 62.5065C255.28 59.1754 256.701 51.3841 256.98 42.9332C257.282 34.1694 256.354 24.6902 254.384 18.6986C253.467 15.9264 252.326 13.8919 250.983 13.0312C245.713 9.67769 218.612 23.8183 217.537 33.5882C216.53 42.8215 229.678 54.2904 231.804 55.4753Z" fill="#FFA9A9"/>
<path d="M231.804 55.4768C233.93 56.6729 248.487 67.5718 252.583 62.508C255.279 59.1768 256.7 51.3855 256.98 42.9347C255.011 46.9813 252.079 50.5583 248.51 47.5178C242.68 42.5658 234.198 36.8872 235.284 28.6153C236.011 23.0708 248.521 15.436 254.395 18.7001C253.478 15.9278 252.336 13.8934 250.994 13.0327C245.723 9.67915 218.623 23.8197 217.548 33.5896C216.53 42.8229 229.678 54.2919 231.804 55.4768Z" fill="#F28686"/>
<path d="M249.373 65.4135C244.058 65.4135 236.639 60.5174 232.533 57.801C231.872 57.3651 231.291 56.985 231.044 56.8397C228.583 55.4647 214.876 43.6492 215.995 33.4322C216.811 25.9763 229.142 18.1738 236.303 14.742C239.772 13.0765 248.243 9.44351 251.834 11.7351C254.419 13.3783 256.333 17.9167 257.519 25.2385C259.678 38.496 258.694 57.4657 253.804 63.502C252.696 64.8657 251.152 65.4135 249.373 65.4135ZM248.746 14.1049C246.788 14.1049 243.095 14.9544 237.657 17.559C227.564 22.3992 219.586 29.3745 219.105 33.7788C218.188 42.129 230.787 53.1173 232.577 54.1233C232.924 54.3246 233.484 54.6934 234.267 55.1965C246.251 63.1107 250.19 63.0101 251.387 61.5346C255.628 56.3031 256.501 38.3172 254.442 25.7415C252.976 16.7877 250.794 14.7756 250.156 14.3732C249.888 14.2055 249.418 14.1049 248.746 14.1049Z" fill="#414141"/>
<path d="M269.93 143.427C274.182 147.664 276.275 153.309 275.156 156.673C273.343 162.117 263.765 160.105 261.236 162.318C249.006 175.453 226.638 186.788 194.669 188.733C194.669 188.733 188.728 188.979 181.242 188.979C173.756 188.979 167.815 188.733 167.815 188.733C135.846 186.788 113.478 175.442 101.248 162.318C98.7195 160.105 89.1413 162.117 87.3286 156.673C86.2096 153.309 88.2909 147.664 92.5541 143.427C84.1619 139.559 81.7002 132.483 83.0206 128.515C84.1508 125.128 92.0058 125.911 92.0282 122.088C92.1848 93.8399 101.729 66.5423 115.649 50.2667C115.649 50.2667 120.002 45.2476 124.757 40.9663C128.886 37.2439 135.746 33.3203 135.746 33.3203C148.77 25.5178 164.178 21.2812 181.242 21.2812C198.306 21.2812 213.714 25.5067 226.739 33.3203C226.739 33.3203 233.598 37.2439 237.727 40.9663C242.482 45.2476 246.835 50.2667 246.835 50.2667C260.755 66.5423 270.299 93.8399 270.456 122.088C270.478 125.911 278.333 125.128 279.464 128.515C280.784 132.483 278.322 139.559 269.93 143.427Z" fill="#F8F8F8"/>
<path d="M269.93 143.428C274.182 147.665 276.263 153.31 275.156 156.674C273.343 162.118 263.765 160.106 261.236 162.319C249.006 175.454 226.638 186.789 194.669 188.734C194.669 188.734 188.728 188.991 181.242 188.991C173.756 188.991 167.815 188.734 167.815 188.734C135.846 186.789 113.478 175.443 101.248 162.319C98.7195 160.095 89.1413 162.118 87.3286 156.674C86.2096 153.31 88.2909 147.665 92.5541 143.428C84.1619 139.56 81.7002 132.484 83.0206 128.516C84.1508 125.129 92.0058 125.912 92.0282 122.089C92.0729 113.839 92.9233 105.668 94.4451 97.8316C98.1376 78.8284 105.791 61.7926 115.649 50.2677C115.649 50.2677 120.002 45.2486 124.757 40.9673C128.886 37.2449 135.746 33.3214 135.746 33.3214C147.662 26.1784 161.582 22.0312 176.934 21.3829C178.355 21.3158 179.787 21.2935 181.242 21.2935C198.306 21.2935 213.714 25.53 226.739 33.3325C226.739 33.3325 233.598 37.2561 237.727 40.9785C242.482 45.2598 246.835 50.2789 246.835 50.2789C260.755 66.5546 270.288 93.8521 270.456 122.1C270.478 125.923 278.333 125.14 279.464 128.527C280.784 132.484 278.322 139.549 269.93 143.428Z" fill="#F8F8F8"/>
<path d="M94.4551 97.83C98.1364 78.8269 105.801 61.791 115.648 50.2662C115.648 50.2662 120.001 45.2471 124.756 40.9658C128.885 37.2434 135.744 33.3198 135.744 33.3198C147.661 26.1769 161.581 22.0297 176.933 21.3813C190.226 87.3671 148.209 114.408 94.4551 97.83Z" fill="#E3E3E3"/>
<path d="M240.862 177.163L240.85 177.174C228.822 183.233 213.403 187.592 194.683 188.733C194.683 188.733 188.741 188.979 181.255 188.979C173.769 188.979 167.828 188.733 167.828 188.733C149.298 187.604 134.002 183.322 122.029 177.364C121.973 177.308 121.917 177.253 121.861 177.197C133.89 178.829 147.676 182.898 181.255 182.898C215.014 182.898 228.777 178.784 240.862 177.163Z" fill="#DFE7F2"/>
<path d="M227.05 33.4998C219.777 30.2692 212.415 27.5752 204.683 25.7755C187.552 21.8296 169.335 22.2543 152.45 27.1616C146.721 28.7937 141.249 30.9064 135.744 33.3097C140.488 29.5762 145.938 26.7145 151.588 24.5683C175.232 15.8827 206.742 17.7383 227.05 33.4998Z" fill="#414141"/>
<path d="M167.827 188.745C143.367 188.555 117.385 181.591 99.9515 163.549L100.086 163.672C99.5486 163.236 98.2507 163.113 97.4226 162.968C94.077 162.487 90.1607 162.442 87.3968 159.938C82.3839 154.908 87.2961 146.222 91.481 142.321L91.9286 144.848C87.4416 142.903 83.4022 139.46 81.6566 134.698C80.8622 132.507 80.5601 129.88 81.4328 127.611C82.8987 124.201 87.3185 124.279 89.8921 122.547C90.239 122.245 90.1271 122.133 90.1607 121.753C90.4292 100.727 95.498 78.5488 106.867 60.6635C109.395 56.874 112.293 53.297 115.684 50.2788C113.256 54.113 110.973 57.936 108.948 61.8931C99.3025 80.0132 94.312 100.458 93.9763 120.948C93.9427 121.619 93.9987 122.357 93.8532 123.005C92.9804 127.096 87.4192 126.862 84.9687 128.84C84.7785 128.907 84.51 129.958 84.5323 130.796C84.6442 135.86 88.8627 139.884 93.249 142.008L95.2743 142.992C93.0364 145.038 90.9551 147.575 89.825 150.37C88.7732 152.941 87.822 156.741 90.9775 158.06C93.0475 158.955 95.5652 159.078 97.9374 159.413C99.5934 159.704 101.115 159.804 102.603 161.112C119.365 178.785 144.228 185.85 167.827 188.745Z" fill="#414141"/>
<path d="M194.682 188.744C218.269 185.849 243.143 178.784 259.928 161.1C261.416 159.792 262.938 159.692 264.594 159.401C266.966 159.066 269.483 158.954 271.554 158.049C274.709 156.73 273.758 152.929 272.706 150.358C271.576 147.575 269.495 145.026 267.257 142.98L269.282 141.997C273.657 139.861 277.876 135.848 277.999 130.785C278.01 129.946 277.741 128.896 277.562 128.828C275.112 126.85 269.551 127.085 268.678 122.993C268.532 122.345 268.577 121.596 268.555 120.937C268.219 100.447 263.229 80.0015 253.583 61.8814C251.558 57.9242 249.275 54.1013 246.847 50.2671C250.238 53.2852 253.136 56.8623 255.664 60.6518C267.022 78.5259 272.102 100.715 272.37 121.741C272.393 122.11 272.281 122.233 272.628 122.535C275.201 124.268 279.621 124.189 281.087 127.599C281.96 129.868 281.658 132.495 280.863 134.686C279.129 139.448 275.078 142.902 270.591 144.836L271.039 142.31C275.224 146.222 280.136 154.885 275.123 159.927C272.359 162.419 268.443 162.475 265.097 162.956C264.269 163.101 262.96 163.247 262.434 163.66L262.568 163.537C245.113 181.579 219.142 188.554 194.682 188.744Z" fill="#414141"/>
<path d="M142.666 132.363C152.819 132.351 161.039 122.843 161.026 111.125C161.012 99.4078 152.77 89.9183 142.617 89.93C132.463 89.9417 124.243 99.4501 124.257 111.168C124.27 122.885 132.512 132.375 142.666 132.363Z" fill="#414141"/>
<path d="M147.917 120.59C151.23 120.586 153.911 117.185 153.906 112.993C153.901 108.801 151.212 105.406 147.9 105.41C144.588 105.414 141.906 108.815 141.911 113.007C141.916 117.199 144.605 120.594 147.917 120.59Z" fill="#F8F8F8"/>
<g opacity="0.2">
<path d="M134.693 111.96C136.528 111.957 138.013 109.659 138.01 106.825C138.007 103.991 136.516 101.696 134.681 101.698C132.845 101.7 131.36 103.999 131.363 106.833C131.367 109.666 132.857 111.962 134.693 111.96Z" fill="#F8F8F8"/>
</g>
<path d="M238.244 111.163C238.258 99.4457 230.038 89.9373 219.884 89.9256C209.731 89.9139 201.489 99.4034 201.476 111.121C201.462 122.838 209.682 132.347 219.836 132.359C229.989 132.37 238.231 122.881 238.244 111.163Z" fill="#414141"/>
<path d="M220.582 112.999C220.587 108.807 217.906 105.406 214.593 105.402C211.281 105.398 208.592 108.793 208.587 112.985C208.582 117.177 211.263 120.578 214.576 120.582C217.888 120.586 220.577 117.191 220.582 112.999Z" fill="#F8F8F8"/>
<g opacity="0.2">
<path d="M231.127 106.837C231.13 104.003 229.645 101.704 227.81 101.702C225.974 101.7 224.484 103.995 224.481 106.829C224.477 109.663 225.963 111.962 227.798 111.964C229.633 111.966 231.124 109.67 231.127 106.837Z" fill="#F8F8F8"/>
</g>
<path d="M229.257 67.583C224.624 69.4833 220.451 68.4437 217.329 66.8787C213.737 65.0902 209.496 63.1787 207.46 66.4651C206.318 68.3096 207.807 76.0003 216.467 76.425C224.803 76.8275 228.91 70.8582 229.257 67.583Z" fill="#414141"/>
<path d="M133.531 69.3827C135.724 61.2672 144.351 52.9393 152.397 58.5956C155.742 60.9542 155.877 66.1633 153.113 66.9905C148.917 68.2648 144.184 64.1847 133.531 69.3827Z" fill="#414141"/>
<path d="M171.534 148.258C176.671 143.603 185.714 143.408 189.652 149.642C190.142 150.492 190.544 151.382 190.676 152.337C189.243 151.084 187.821 150.148 186.354 149.444C184.894 148.731 183.385 148.301 181.817 148.041C178.379 147.505 175.018 148.11 171.534 148.258Z" fill="#414141"/>
<path d="M190.628 123.306C188.848 128.27 181.251 131.075 181.251 131.075C181.251 131.075 173.642 128.281 171.874 123.306C170.61 119.752 179.55 119.17 181.251 119.17C182.94 119.17 191.892 119.752 190.628 123.306Z" fill="#414141"/>
<path d="M185.105 129.152C183.919 130.114 182.095 131.589 181.255 135.636C181.255 135.647 181.255 135.647 181.255 135.658V135.647C180.405 131.6 178.592 130.125 177.406 129.164L181.255 128.437H181.267L185.105 129.152Z" fill="#414141"/>
<path d="M181.255 135.635V135.669C181.255 135.658 181.255 135.658 181.255 135.646C181.244 135.646 181.255 135.635 181.255 135.635Z" fill="#512717"/>
<g opacity="0.5">
<path d="M185.136 120.981C184.397 122.233 181.242 122.211 181.242 122.211C181.242 122.211 178.086 122.233 177.348 120.981C176.822 120.087 180.537 119.941 181.242 119.941C181.947 119.941 185.661 120.087 185.136 120.981Z" fill="#F8F8F8"/>
</g>
</g>
<path d="M333.896 242.288C333.896 242.288 312.144 314.361 298.001 344.138C283.858 373.915 223.169 376.419 178.503 376.419C133.836 376.419 73.1467 373.915 59.0038 344.138C44.8608 314.361 23.1094 242.288 23.1094 242.288H333.896Z" fill="#70C52C"/>
<g opacity="0.1">
<path d="M38.1439 289.055L88.5393 242.288H72.0691L34.2949 277.341C35.4586 281.096 36.8013 285.031 38.1439 289.055Z" fill="#4D4D4D"/>
<path d="M138.935 242.288H122.465L46.4688 312.841C47.9009 316.775 49.3331 320.531 50.6758 324.197L138.935 242.288Z" fill="#4D4D4D"/>
<path d="M172.863 242.288L60.3457 346.642C62.2255 349.861 64.6423 352.722 67.5962 355.226L189.333 242.288H172.863Z" fill="#4D4D4D"/>
<path d="M331.205 250.961C332.906 245.596 333.891 242.288 333.891 242.288H324.044L179.393 376.419C184.763 376.419 190.403 376.329 196.042 376.24L331.205 250.961Z" fill="#4D4D4D"/>
<path d="M308.289 318.921C311.064 311.589 313.839 303.809 316.434 296.029L232.293 374.094C239.096 373.289 245.809 372.305 252.165 370.964L308.289 318.921Z" fill="#4D4D4D"/>
<path d="M239.725 242.288H223.255L89.0762 366.761C93.1042 368.103 97.3113 369.265 101.787 370.338L239.725 242.288Z" fill="#4D4D4D"/>
<path d="M290.121 242.288H273.651L130.879 374.72C135.981 375.167 141.083 375.525 146.275 375.793L290.121 242.288Z" fill="#4D4D4D"/>
</g>
<g opacity="0.1">
<path d="M112.972 372.484L45.3008 309.711C48.3442 318.206 51.3876 326.343 54.3415 333.407L90.952 367.387C97.7549 369.533 105.184 371.232 112.972 372.484Z" fill="#4D4D4D"/>
<path d="M23.1934 242.466C23.6409 243.807 26.1473 252.302 29.9068 264.016L150.569 375.971C156.298 376.239 162.027 376.329 167.577 376.418L23.1934 242.466Z" fill="#4D4D4D"/>
<path d="M174.113 242.288H157.643L283.855 359.339C287.167 357.193 290.121 354.779 292.537 352.096L174.113 242.288Z" fill="#4D4D4D"/>
<path d="M274.906 242.288H258.436L316.439 296.119C317.782 292.184 319.125 288.25 320.378 284.494L274.906 242.288Z" fill="#4D4D4D"/>
<path d="M224.505 242.288H208.035L303.634 330.993C305.066 327.416 306.499 323.661 308.02 319.726L224.505 242.288Z" fill="#4D4D4D"/>
<path d="M123.804 242.288H107.334L247.152 372.037C251.807 371.232 256.193 370.249 260.489 369.086L123.804 242.288Z" fill="#4D4D4D"/>
<path d="M73.4117 242.288H56.9414L201.235 376.151C206.427 375.972 211.708 375.793 216.989 375.435L73.4117 242.288Z" fill="#4D4D4D"/>
</g>
<path opacity="0.15" d="M59.0061 300.232C73.149 270.455 133.838 267.951 178.505 267.951C223.171 267.951 283.861 270.455 298.004 300.232C300.778 306.134 303.911 313.824 307.134 322.23C319.934 288.518 333.898 242.288 333.898 242.288H23.2012C23.2012 242.288 37.1651 288.518 49.9653 322.23C53.0982 313.824 56.2312 306.223 59.0061 300.232Z" fill="#4D4D4D"/>
<path d="M338.731 255.164H18.2771C8.69934 255.164 0.822266 247.295 0.822266 237.727C0.822266 228.159 8.69934 220.29 18.2771 220.29H338.731C348.309 220.29 356.186 228.159 356.186 237.727C356.186 247.384 348.309 255.164 338.731 255.164Z" fill="#70C52C"/>
<path opacity="0.2" d="M143.863 236.921H23.6478C20.9624 236.921 18.7246 234.686 18.7246 232.003C18.7246 229.32 20.9624 227.085 23.6478 227.085H143.863C146.548 227.085 148.786 229.32 148.786 232.003C148.786 234.686 146.548 236.921 143.863 236.921Z" fill="white"/>
<path opacity="0.2" d="M195.868 236.921H166.867C164.181 236.921 161.943 234.686 161.943 232.003C161.943 229.32 164.181 227.085 166.867 227.085H195.868C198.554 227.085 200.792 229.32 200.792 232.003C200.792 234.686 198.643 236.921 195.868 236.921Z" fill="white"/>
<defs>
<clipPath id="clip0_199_8515">
<rect width="237" height="285" fill="white" transform="translate(70)"/>
</clipPath>
</defs>
</svg>
